<svg xmlns="http://www.w3.org/2000/svg" viewBox="0 0 606.55 177.16"><defs><style>.cls-1{fill:#fec601;}.cls-2{fill:#fff;}</style></defs><title>Fichier 2</title><g id="Calque_2" data-name="Calque 2"><g id="Calque_1-2" data-name="Calque 1"><path class="cls-1" d="M60,88.91l12.21-7c-.66-.5-4.67-3.66-4.8-8.73a10.43,10.43,0,0,1,.88-4.36c9.77-3.64,20.41-7.19,31.85-10.47C111.37,55.16,122,52.58,132,50.51A375.77,375.77,0,0,1,236.76,24.33a379.94,379.94,0,0,1,161.89,19.2,526.83,526.83,0,0,0-217.82-2.78,3.54,3.54,0,0,0-1.22,2.63q.4,6.25,34.54,10.33c.78.33,1.73.8,1.67,1.16s-1.64.52-2.29.55c-6,.25-34.94-1.66-50.4-.11a76.8,76.8,0,0,0-13.53,2.62,94.39,94.39,0,0,1,20.29,4.14c13.58,4.38,20.71,10.14,30.44,15.5a125,125,0,0,0,38.29,13.3l-58.47-.1a43.57,43.57,0,0,0-13.78-20C149.93,57.57,126,60,110.27,69.15A52.57,52.57,0,0,0,93.2,85.42c-10.86-1.19-16.49-.06-19.64,1.31a26.1,26.1,0,0,1-5.17,1.73A26.5,26.5,0,0,1,60,88.91Z"/><path class="cls-1" d="M527.4,90.66l23.27-.29c-3.59-2.6-9.12-6.43-16.15-10.61-26.35-15.68-65.39-31.29-167.12-33a1048.88,1048.88,0,0,0-114.91,4.36c34.57-1.25,64-1.09,86.4-.58C448.49,53,490.06,66.37,523,87.75,524.9,89,526.41,90,527.4,90.66Z"/><path class="cls-2" d="M106.6,82.58c1.62-1.91,12.52-14.36,30.11-14.4,14.83,0,28.66,8.76,35.74,22.62l-8.85-.09c-.91-1.62-9.1-15.67-26.45-18.16S107.92,81.29,106.6,82.58Z"/><path class="cls-2" d="M420.37,82.58c1.62-1.91,12.52-14.36,30.11-14.4,14.83,0,28.67,8.76,35.74,22.62l-8.85-.09c-.91-1.62-9.09-15.67-26.45-18.16S421.69,81.29,420.37,82.58Z"/><path class="cls-2" d="M196.93,63.46a893.25,893.25,0,0,1,220.8,4.8L226.89,70c-.55.85-1.24,1.84-.73,2.33,6.32,6.1,27.94,12.42,35.93,13.67A69.67,69.67,0,0,1,225,82.9,69.53,69.53,0,0,1,196.93,63.46Z"/><path class="cls-2" d="M77.6,130.1q4.09,5.84,6.65,10.35h.17q-.35-7.42-.34-10.8V112.42h7v38h-7.3L71.34,133q-3.27-4.56-6.76-10.55h-.17c.22,4.66.34,8.27.34,10.83v17.23h-7v-38h7.31Z"/><path class="cls-2" d="M135.5,131.44a24.36,24.36,0,0,1-1.24,8,17.53,17.53,0,0,1-3.61,6.24,16.13,16.13,0,0,1-5.83,4.07,22,22,0,0,1-15.71,0,16.13,16.13,0,0,1-5.83-4.07,17.53,17.53,0,0,1-3.61-6.24,26.23,26.23,0,0,1,0-15.94,17.53,17.53,0,0,1,3.61-6.24,16.13,16.13,0,0,1,5.83-4.07,22,22,0,0,1,15.71,0,16.13,16.13,0,0,1,5.83,4.07,17.53,17.53,0,0,1,3.61,6.24A24.36,24.36,0,0,1,135.5,131.44Zm-7.19,0a19.5,19.5,0,0,0-.86-6.07,12.15,12.15,0,0,0-2.36-4.33,9.34,9.34,0,0,0-3.58-2.59,12.58,12.58,0,0,0-9.09,0,9.34,9.34,0,0,0-3.58,2.59,12.15,12.15,0,0,0-2.36,4.33,21.85,21.85,0,0,0,0,12.14,12.11,12.11,0,0,0,2.36,4.32,9.56,9.56,0,0,0,3.58,2.59,12.44,12.44,0,0,0,9.09,0,9.56,9.56,0,0,0,3.58-2.59,12.11,12.11,0,0,0,2.36-4.32A19.5,19.5,0,0,0,128.31,131.44Z"/><path class="cls-2" d="M171,123.85a10.57,10.57,0,0,1-2.2,6.75,13,13,0,0,1-6.81,4.11v.11l11.31,15.64H165l-10.35-14.73h-4.78v14.73h-7v-38h11.57a40.49,40.49,0,0,1,5.34.33,20.29,20.29,0,0,1,4.24,1,11,11,0,0,1,5.17,3.8A10.5,10.5,0,0,1,171,123.85Zm-17.74,6.06a32.85,32.85,0,0,0,4.05-.22,12.23,12.23,0,0,0,2.8-.64,5.45,5.45,0,0,0,2.92-2.17,6.15,6.15,0,0,0,.81-3.17,5.72,5.72,0,0,0-.64-2.72,4.43,4.43,0,0,0-2.18-1.86,9.46,9.46,0,0,0-2.5-.67,27.52,27.52,0,0,0-3.72-.21h-5v11.66Z"/><path class="cls-2" d="M179.44,150.46v-38h10.07c.89,0,1.79,0,2.71.09s1.81.14,2.69.26,1.71.25,2.53.41a17.78,17.78,0,0,1,2.24.58,19.43,19.43,0,0,1,5.37,2.61,15.92,15.92,0,0,1,3.91,3.9,17,17,0,0,1,2.39,5,21.3,21.3,0,0,1,.81,6,23.54,23.54,0,0,1-.68,5.75A17.22,17.22,0,0,1,209.4,142a15.68,15.68,0,0,1-3.51,3.91,18.25,18.25,0,0,1-5,2.77,27,27,0,0,1-5.49,1.36,46.52,46.52,0,0,1-6.91.46Zm9.84-5.83c4.07,0,7.26-.56,9.55-1.68a10.22,10.22,0,0,0,4.6-4.38,15.11,15.11,0,0,0,1.57-7.33,16.14,16.14,0,0,0-.51-4.21,11.94,11.94,0,0,0-1.48-3.34,10.4,10.4,0,0,0-2.35-2.51,13,13,0,0,0-3.11-1.74,16.87,16.87,0,0,0-3.61-.9,31.61,31.61,0,0,0-4.46-.29h-3.07v26.38Z"/><path class="cls-2" d="M242.06,135.73c-.62,0-1.24,0-1.84,0s-1.18,0-1.71-.11v14.87h-7v-38h11a40,40,0,0,1,4.82.25,22,22,0,0,1,3.68.72,12,12,0,0,1,6,3.81,10.23,10.23,0,0,1,2.11,6.65,10.63,10.63,0,0,1-1.14,5,10.38,10.38,0,0,1-3.32,3.74,16.55,16.55,0,0,1-5.35,2.36A28.77,28.77,0,0,1,242.06,135.73Zm-3.55-6c.4.06.91.1,1.52.13s1.26,0,1.92,0a20.85,20.85,0,0,0,4.72-.46,9,9,0,0,0,3.07-1.26,4.85,4.85,0,0,0,1.68-2,6.09,6.09,0,0,0,.51-2.51,5.34,5.34,0,0,0-.77-2.9,5,5,0,0,0-2.67-1.91,11.85,11.85,0,0,0-2.46-.49,33.19,33.19,0,0,0-3.6-.16h-3.92Z"/><path class="cls-2" d="M294.65,123.85a10.57,10.57,0,0,1-2.2,6.75,13,13,0,0,1-6.81,4.11v.11L297,150.46h-8.36l-10.34-14.73h-4.78v14.73h-7v-38h11.57a40.49,40.49,0,0,1,5.34.33,20.29,20.29,0,0,1,4.24,1,11,11,0,0,1,5.17,3.8A10.5,10.5,0,0,1,294.65,123.85Zm-17.74,6.06a32.85,32.85,0,0,0,4-.22,12.23,12.23,0,0,0,2.8-.64,5.45,5.45,0,0,0,2.92-2.17,6.15,6.15,0,0,0,.81-3.17,5.72,5.72,0,0,0-.64-2.72,4.43,4.43,0,0,0-2.18-1.86,9.56,9.56,0,0,0-2.5-.67,27.62,27.62,0,0,0-3.72-.21h-5v11.66Z"/><path class="cls-2" d="M338.42,131.44a24.63,24.63,0,0,1-1.23,8,17.68,17.68,0,0,1-3.61,6.24,16.3,16.3,0,0,1-5.83,4.07,22,22,0,0,1-15.72,0,16.3,16.3,0,0,1-5.83-4.07,17.68,17.68,0,0,1-3.61-6.24,26.44,26.44,0,0,1,0-15.94,17.68,17.68,0,0,1,3.61-6.24,16.3,16.3,0,0,1,5.83-4.07,22,22,0,0,1,15.72,0,16.3,16.3,0,0,1,5.83,4.07,17.68,17.68,0,0,1,3.61,6.24A24.63,24.63,0,0,1,338.42,131.44Zm-7.19,0a19.51,19.51,0,0,0-.85-6.07A12.47,12.47,0,0,0,328,121a9.42,9.42,0,0,0-3.58-2.59,12.6,12.6,0,0,0-9.1,0,9.5,9.5,0,0,0-3.58,2.59,12.47,12.47,0,0,0-2.36,4.33,22.1,22.1,0,0,0,0,12.14,12.42,12.42,0,0,0,2.36,4.32,9.72,9.72,0,0,0,3.58,2.59,12.47,12.47,0,0,0,9.1,0,9.64,9.64,0,0,0,3.58-2.59,12.42,12.42,0,0,0,2.36-4.32A19.51,19.51,0,0,0,331.23,131.44Z"/><path class="cls-2" d="M365.37,140.25q1.25-4.49,3.1-9.63l6.57-18.2h9.77v38h-7V131.18q0-4.23.34-9.83h-.26c-.32,1.08-.7,2.29-1.13,3.64s-.89,2.67-1.37,4l-7.87,21.49h-4.49L355.19,129c-.47-1.31-.92-2.64-1.36-4s-.81-2.56-1.14-3.64h-.25c.22,3.51.34,6.77.34,9.81v19.3h-7v-38h9.73l6.56,18.11q1.65,4.51,3.1,9.72Z"/><path class="cls-2" d="M429.27,131.44a24.36,24.36,0,0,1-1.24,8,17.38,17.38,0,0,1-3.61,6.24,16.18,16.18,0,0,1-5.82,4.07,22,22,0,0,1-15.72,0,16.22,16.22,0,0,1-5.83-4.07,17.53,17.53,0,0,1-3.61-6.24,26.23,26.23,0,0,1,0-15.94,17.53,17.53,0,0,1,3.61-6.24,16.22,16.22,0,0,1,5.83-4.07,22,22,0,0,1,15.72,0,16.18,16.18,0,0,1,5.82,4.07,17.38,17.38,0,0,1,3.61,6.24A24.36,24.36,0,0,1,429.27,131.44Zm-7.19,0a19.81,19.81,0,0,0-.85-6.07,12.47,12.47,0,0,0-2.36-4.33,9.45,9.45,0,0,0-3.59-2.59,12.58,12.58,0,0,0-9.09,0,9.42,9.42,0,0,0-3.58,2.59,12.31,12.31,0,0,0-2.36,4.33,22.1,22.1,0,0,0,0,12.14,12.26,12.26,0,0,0,2.36,4.32,9.64,9.64,0,0,0,3.58,2.59,12.44,12.44,0,0,0,9.09,0,9.67,9.67,0,0,0,3.59-2.59,12.42,12.42,0,0,0,2.36-4.32A19.81,19.81,0,0,0,422.08,131.44Z"/><path class="cls-1" d="M464.89,117.6a14.21,14.21,0,0,0-5.25.94,11.36,11.36,0,0,0-4.12,2.72,12.64,12.64,0,0,0-2.69,4.42,17.52,17.52,0,0,0-1,6,17.89,17.89,0,0,0,.88,5.89,11.3,11.3,0,0,0,2.53,4.25,10.55,10.55,0,0,0,4,2.58,15.83,15.83,0,0,0,5.39.86,28.83,28.83,0,0,0,4.4-.34,26.21,26.21,0,0,0,4.21-1v6a32.42,32.42,0,0,1-4.29.9,33.74,33.74,0,0,1-4.78.33,24.09,24.09,0,0,1-8.5-1.38,16.58,16.58,0,0,1-6.12-3.9,16.18,16.18,0,0,1-3.7-6,23.29,23.29,0,0,1-1.23-7.75,24,24,0,0,1,1.32-8.07,18.75,18.75,0,0,1,3.81-6.45,17.21,17.21,0,0,1,6.22-4.29,22,22,0,0,1,8.46-1.6,30.23,30.23,0,0,1,4.57.33,23.29,23.29,0,0,1,3.9.92v5.92a27,27,0,0,0-4.24-1A26.48,26.48,0,0,0,464.89,117.6Z"/><path class="cls-1" d="M502.18,140.76H487.86l-3.73,9.7h-7.42l15.09-38h6.37l15.1,38H505.9ZM495,121.58q-2,6-3.56,10l-1.3,3.39h9.83l-1.3-3.39q-1.54-4-3.56-10Z"/><path class="cls-1" d="M546.81,123.85a10.52,10.52,0,0,1-2.21,6.75,13,13,0,0,1-6.8,4.11v.11l11.31,15.64h-8.36l-10.34-14.73h-4.78v14.73h-7v-38h11.56a40.54,40.54,0,0,1,5.35.33,20,20,0,0,1,4.23,1,11,11,0,0,1,5.18,3.8A10.5,10.5,0,0,1,546.81,123.85Zm-17.74,6.06a32.85,32.85,0,0,0,4-.22,12.23,12.23,0,0,0,2.8-.64,5.42,5.42,0,0,0,2.91-2.17,6.15,6.15,0,0,0,.81-3.17A5.61,5.61,0,0,0,539,121a4.4,4.4,0,0,0-2.17-1.86,9.56,9.56,0,0,0-2.5-.67,27.78,27.78,0,0,0-3.73-.21h-5v11.66Z"/></g></g></svg>