<svg xmlns="http://www.w3.org/2000/svg" viewBox="0 0 285.73 148.25" fill="white">
    <title>Fichier 2</title>
    <g id="Calque_2" data-name="Calque 2">
        <g id="Calque_1-2" data-name="Calque 1">
            <polygon
                points="203.17 11.79 203.17 14.94 190.61 14.94 190.61 83 142.66 11.79 148.57 11.79 187.21 69.91 187.46 69.91 187.46 14.94 173.73 14.94 173.73 11.79 203.17 11.79" />
            <polyline
                points="133.72 14.94 116.91 14.94 110.18 11.79 137.12 11.79 190.61 91.23 190.61 96.62 188.08 96.62" />
            <path
                d="M145.73,89.87v3a31.43,31.43,0,0,1-10.26,1.83q-10.08,0-14.24-5.62t-4-11l.24-10.39A19.43,19.43,0,0,0,114,57q-3.45-5.28-15.67-5.28H90.68V48.81h11a46.84,46.84,0,0,0,10.81-.94,9.45,9.45,0,0,0,6-4.95q2.23-4,2.23-12.74,0-7.16-2.26-10.45A9.23,9.23,0,0,0,113,15.67a37.47,37.47,0,0,0-8.4-.76H76.14V11.79h32a56.66,56.66,0,0,1,14.45,1.53,19.25,19.25,0,0,1,9.74,6.32,16.49,16.49,0,0,1,4.09,11,15.38,15.38,0,0,1-6,12.58q-6,4.83-20.29,7.27v.31q10.27,2,16.84,7.82t6.56,19.67q0,8,1.87,10.18a6.37,6.37,0,0,0,5.16,2.23A19.19,19.19,0,0,0,145.73,89.87Z" />
            <circle cx="76.14" cy="90.91" r="4.43" />
            <path
                d="M212.13,0a6.07,6.07,0,1,0,6.07,6.07A6.07,6.07,0,0,0,212.13,0Zm0,10.72a4.66,4.66,0,1,1,4.66-4.65A4.65,4.65,0,0,1,212.13,10.72Z" />
            <path
                d="M213.72,7l.67.15c-.32,1.29-1,1.93-2.16,1.93a2,2,0,0,1-1.73-.89,3.73,3.73,0,0,1-.63-2.2,3.36,3.36,0,0,1,.65-2.15A2.14,2.14,0,0,1,212.28,3a2.08,2.08,0,0,1,2.11,1.87l-.69.14c-.25-.93-.72-1.39-1.42-1.39a1.37,1.37,0,0,0-1.2.64,3.36,3.36,0,0,0-.42,1.82,3.07,3.07,0,0,0,.43,1.72,1.34,1.34,0,0,0,1.16.64C213,8.48,213.48,8,213.72,7Z" />
            <path
                d="M0,134.9V111.28H10a17.33,17.33,0,0,1,5.5.63,5.44,5.44,0,0,1,2.75,2.27,6.76,6.76,0,0,1,1,3.72,6.32,6.32,0,0,1-1.56,4.39,7.55,7.55,0,0,1-4.68,2.18,10.9,10.9,0,0,1,2.56,2,27.17,27.17,0,0,1,2.71,3.84l2.89,4.61H15.53l-3.45-5.14a31.63,31.63,0,0,0-2.51-3.47,3.71,3.71,0,0,0-1.43-1,7.85,7.85,0,0,0-2.4-.26h-1v9.86Zm4.77-13.63H8.3a18.29,18.29,0,0,0,4.28-.29,2.61,2.61,0,0,0,1.34-1,3.13,3.13,0,0,0,.49-1.78,2.85,2.85,0,0,0-.64-1.92,2.93,2.93,0,0,0-1.8-.93c-.38,0-1.54-.08-3.48-.08H4.77Z" />
            <path d="M38.5,134.9V111.28H56v4H43.27v5.24H55.13v4H43.27v6.43h13.2v4Z" />
            <path d="M75.24,134.9V111.28h4.65l9.66,15.77V111.28H94V134.9H89.2l-9.52-15.41V134.9Z" />
            <path d="M119,134.9V115.27h-7v-4h18.77v4h-7V134.9Z" />
            <path d="M148.6,134.9V111.28h4.64l9.67,15.77V111.28h4.43V134.9h-4.78L153,119.49V134.9Z" />
            <path
                d="M186.1,123.23a15.07,15.07,0,0,1,1.08-6.06,11.26,11.26,0,0,1,2.2-3.24,9.23,9.23,0,0,1,3.06-2.12,12.84,12.84,0,0,1,5.09-.94,11.08,11.08,0,0,1,8.35,3.24q3.13,3.24,3.14,9t-3.11,8.95a12.44,12.44,0,0,1-16.7,0Q186.1,128.87,186.1,123.23Zm4.92-.16c0,2.68.62,4.7,1.85,6.08a6.06,6.06,0,0,0,4.71,2.07,6,6,0,0,0,4.68-2.05q1.83-2.05,1.83-6.16c0-2.71-.6-4.73-1.78-6.06a6.61,6.61,0,0,0-9.49,0Q191,119,191,123.07Z" />
            <path
                d="M227.44,134.9V111.28h10a17.33,17.33,0,0,1,5.5.63,5.44,5.44,0,0,1,2.75,2.27,6.76,6.76,0,0,1,1,3.72,6.32,6.32,0,0,1-1.56,4.39,7.52,7.52,0,0,1-4.67,2.18,11,11,0,0,1,2.55,2,26.36,26.36,0,0,1,2.71,3.84l2.89,4.61H243l-3.44-5.14a32.64,32.64,0,0,0-2.52-3.47,3.71,3.71,0,0,0-1.43-1,7.85,7.85,0,0,0-2.4-.26h-1v9.86Zm4.77-13.63h3.53A18.46,18.46,0,0,0,240,121a2.59,2.59,0,0,0,1.33-1,3.06,3.06,0,0,0,.49-1.78,2.85,2.85,0,0,0-.64-1.92,2.9,2.9,0,0,0-1.8-.93c-.38,0-1.54-.08-3.48-.08h-3.72Z" />
            <path
                d="M265.93,111.28h8.71a17.07,17.07,0,0,1,4.5.45,7.87,7.87,0,0,1,3.56,2.17,10.35,10.35,0,0,1,2.26,3.83,17.59,17.59,0,0,1,.77,5.58,15.34,15.34,0,0,1-.73,5,10.31,10.31,0,0,1-2.53,4.17,8.25,8.25,0,0,1-3.35,1.89,14.51,14.51,0,0,1-4.22.5h-9Zm4.77,4v15.65h3.56a12.92,12.92,0,0,0,2.88-.23,4.42,4.42,0,0,0,1.93-1,5,5,0,0,0,1.24-2.28,15.11,15.11,0,0,0,.49-4.33,13.78,13.78,0,0,0-.49-4.2,5.38,5.38,0,0,0-1.35-2.29,4.46,4.46,0,0,0-2.21-1.11,21.44,21.44,0,0,0-3.91-.23Z" />
            <path d="M71.76,148.13V141h.88v7.15Z" />
            <path
                d="M76.55,145.54a2.64,2.64,0,0,1,.8-2.13,2.38,2.38,0,0,1,1.63-.58,2.3,2.3,0,0,1,1.74.7,2.64,2.64,0,0,1,.68,1.94,3.4,3.4,0,0,1-.3,1.57,2.08,2.08,0,0,1-.87.89,2.45,2.45,0,0,1-1.25.32,2.3,2.3,0,0,1-1.76-.7A2.76,2.76,0,0,1,76.55,145.54Zm.9,0a2.19,2.19,0,0,0,.43,1.49,1.45,1.45,0,0,0,2.19,0,2.26,2.26,0,0,0,.43-1.52,2.18,2.18,0,0,0-.44-1.46,1.38,1.38,0,0,0-1.08-.49,1.4,1.4,0,0,0-1.1.49A2.21,2.21,0,0,0,77.45,145.54Z" />
            <path
                d="M88.69,146.23l.86.12a2.24,2.24,0,0,1-.72,1.4,2.16,2.16,0,0,1-1.44.5,2.23,2.23,0,0,1-1.71-.69,2.84,2.84,0,0,1-.64-2,3.71,3.71,0,0,1,.27-1.47,2,2,0,0,1,.85-.94,2.52,2.52,0,0,1,1.24-.32,2.13,2.13,0,0,1,1.38.43,1.94,1.94,0,0,1,.69,1.21l-.86.13a1.38,1.38,0,0,0-.43-.78,1.08,1.08,0,0,0-.75-.27,1.37,1.37,0,0,0-1.08.48,2.31,2.31,0,0,0-.41,1.51,2.34,2.34,0,0,0,.4,1.52,1.31,1.31,0,0,0,1,.47,1.24,1.24,0,0,0,.87-.32A1.58,1.58,0,0,0,88.69,146.23Z" />
            <path
                d="M96.56,147.49a3.21,3.21,0,0,1-.94.59,2.83,2.83,0,0,1-1,.17,1.9,1.9,0,0,1-1.32-.42,1.46,1.46,0,0,1,.17-2.26,2,2,0,0,1,.64-.29,5.14,5.14,0,0,1,.78-.13,7.92,7.92,0,0,0,1.56-.31c0-.12,0-.19,0-.23a.94.94,0,0,0-.25-.75,1.46,1.46,0,0,0-1-.3,1.54,1.54,0,0,0-.92.22,1.32,1.32,0,0,0-.43.77l-.86-.12a2.09,2.09,0,0,1,.38-.89,1.65,1.65,0,0,1,.78-.52,3.28,3.28,0,0,1,1.18-.19,3,3,0,0,1,1.08.16,1.4,1.4,0,0,1,.61.39,1.38,1.38,0,0,1,.27.6,5,5,0,0,1,0,.81V146a11.54,11.54,0,0,0,.06,1.55,1.91,1.91,0,0,0,.22.62h-.92A1.72,1.72,0,0,1,96.56,147.49Zm-.08-2a6.2,6.2,0,0,1-1.43.33,3.5,3.5,0,0,0-.77.18.69.69,0,0,0-.34.29.67.67,0,0,0-.13.41.75.75,0,0,0,.27.59,1.19,1.19,0,0,0,.78.23,1.77,1.77,0,0,0,.9-.22,1.31,1.31,0,0,0,.58-.61,2,2,0,0,0,.14-.88Z" />
            <path
                d="M103.52,147.35l.13.77a2.81,2.81,0,0,1-.66.08,1.56,1.56,0,0,1-.75-.15.89.89,0,0,1-.37-.4,3.22,3.22,0,0,1-.1-1v-3h-.65V143h.65v-1.29l.87-.52V143h.88v.68h-.88v3a1.52,1.52,0,0,0,0,.49.35.35,0,0,0,.15.17.61.61,0,0,0,.3.06Z" />
            <path d="M107.26,142v-1h.88v1Zm0,6.14V143h.88v5.18Z" />
            <path
                d="M112,145.54a2.67,2.67,0,0,1,.8-2.13,2.38,2.38,0,0,1,1.63-.58,2.32,2.32,0,0,1,1.75.7,2.68,2.68,0,0,1,.68,1.94,3.4,3.4,0,0,1-.3,1.57,2.1,2.1,0,0,1-.88.89,2.45,2.45,0,0,1-1.25.32,2.31,2.31,0,0,1-1.76-.7A2.76,2.76,0,0,1,112,145.54Zm.9,0a2.19,2.19,0,0,0,.44,1.49,1.44,1.44,0,0,0,2.18,0,2.26,2.26,0,0,0,.43-1.52,2.18,2.18,0,0,0-.43-1.46,1.41,1.41,0,0,0-1.09-.49,1.38,1.38,0,0,0-1.09.49A2.21,2.21,0,0,0,112.92,145.54Z" />
            <path
                d="M120.78,148.13V143h.79v.74a1.87,1.87,0,0,1,1.65-.86,2.2,2.2,0,0,1,.86.17,1.37,1.37,0,0,1,.59.44,1.66,1.66,0,0,1,.27.65,5.31,5.31,0,0,1,0,.86v3.18h-.88V145a2.28,2.28,0,0,0-.1-.8.88.88,0,0,0-.36-.43,1.24,1.24,0,0,0-.62-.16,1.44,1.44,0,0,0-1,.36,1.77,1.77,0,0,0-.4,1.35v2.83Z" />
            <path
                d="M138.22,148.13v-.65a1.62,1.62,0,0,1-1.45.77,2,2,0,0,1-1.14-.34,2.32,2.32,0,0,1-.81-1,3.24,3.24,0,0,1-.28-1.4,3.73,3.73,0,0,1,.26-1.41,2,2,0,0,1,.77-1,2.07,2.07,0,0,1,1.16-.34,1.8,1.8,0,0,1,.84.2,1.72,1.72,0,0,1,.59.51V141H139v7.15Zm-2.78-2.58a2.26,2.26,0,0,0,.42,1.49,1.29,1.29,0,0,0,1,.49,1.25,1.25,0,0,0,1-.47,2.19,2.19,0,0,0,.41-1.44,2.45,2.45,0,0,0-.41-1.56,1.25,1.25,0,0,0-1-.5,1.2,1.2,0,0,0-1,.48A2.31,2.31,0,0,0,135.44,145.55Z" />
            <path
                d="M146.84,146.46l.91.12a2.22,2.22,0,0,1-.8,1.23,2.41,2.41,0,0,1-1.48.44,2.38,2.38,0,0,1-1.81-.7,2.75,2.75,0,0,1-.66-2,2.88,2.88,0,0,1,.67-2,2.28,2.28,0,0,1,1.75-.72,2.23,2.23,0,0,1,1.7.71,2.81,2.81,0,0,1,.66,2c0,.05,0,.13,0,.24H143.9a2,2,0,0,0,.49,1.3,1.41,1.41,0,0,0,1.08.46,1.37,1.37,0,0,0,.83-.26A1.69,1.69,0,0,0,146.84,146.46ZM144,145h2.9a1.8,1.8,0,0,0-.33-1,1.36,1.36,0,0,0-1.09-.51,1.39,1.39,0,0,0-1,.41A1.58,1.58,0,0,0,144,145Z" />
            <path d="M158.81,148.13l-2-5.18h.92l1.12,3.1q.18.51.33,1,.12-.4.33-1l1.15-3.16h.9l-2,5.18Z" />
            <path
                d="M164.91,145.54a2.67,2.67,0,0,1,.8-2.13,2.39,2.39,0,0,1,1.63-.58,2.31,2.31,0,0,1,1.75.7,2.68,2.68,0,0,1,.68,1.94,3.4,3.4,0,0,1-.3,1.57,2,2,0,0,1-.88.89,2.43,2.43,0,0,1-1.25.32,2.33,2.33,0,0,1-1.76-.7A2.76,2.76,0,0,1,164.91,145.54Zm.9,0a2.19,2.19,0,0,0,.44,1.49,1.44,1.44,0,0,0,2.18,0,2.26,2.26,0,0,0,.44-1.52,2.18,2.18,0,0,0-.44-1.46,1.46,1.46,0,0,0-2.18,0A2.21,2.21,0,0,0,165.81,145.54Z" />
            <path d="M173.67,142v-1h.88v1Zm0,6.14V143h.88v5.18Z" />
            <path
                d="M180.68,147.35l.13.77a2.83,2.83,0,0,1-.67.08,1.51,1.51,0,0,1-.74-.15.79.79,0,0,1-.37-.4,3.13,3.13,0,0,1-.11-1v-3h-.64V143h.64v-1.29l.88-.52V143h.88v.68h-.88v3a1.64,1.64,0,0,0,0,.49.35.35,0,0,0,.15.17.61.61,0,0,0,.3.06Z" />
            <path
                d="M187.81,148.13v-.76a1.9,1.9,0,0,1-1.65.88,2.19,2.19,0,0,1-.85-.17,1.44,1.44,0,0,1-.6-.45,1.85,1.85,0,0,1-.27-.65,5.08,5.08,0,0,1-.05-.82V143h.88v2.87a5.93,5.93,0,0,0,0,.93.94.94,0,0,0,.35.55,1.11,1.11,0,0,0,.67.19,1.4,1.4,0,0,0,.74-.2,1.14,1.14,0,0,0,.49-.55,2.65,2.65,0,0,0,.15-1V143h.87v5.18Z" />
            <path
                d="M192.83,148.13V143h.79v.78a2.1,2.1,0,0,1,.56-.72,1,1,0,0,1,.57-.18,1.81,1.81,0,0,1,.9.28l-.3.82a1.25,1.25,0,0,0-.65-.19.9.9,0,0,0-.52.17,1,1,0,0,0-.32.48,3.42,3.42,0,0,0-.15,1v2.71Z" />
            <path
                d="M202.59,146.46l.91.12a2.17,2.17,0,0,1-.8,1.23,2.7,2.7,0,0,1-3.29-.26,2.75,2.75,0,0,1-.66-2,2.88,2.88,0,0,1,.67-2,2.28,2.28,0,0,1,1.75-.72,2.23,2.23,0,0,1,1.7.71,2.81,2.81,0,0,1,.66,2c0,.05,0,.13,0,.24h-3.86a2,2,0,0,0,.48,1.3,1.41,1.41,0,0,0,1.08.46,1.35,1.35,0,0,0,.83-.26A1.56,1.56,0,0,0,202.59,146.46ZM199.71,145h2.89a1.8,1.8,0,0,0-.33-1,1.34,1.34,0,0,0-1.09-.51,1.42,1.42,0,0,0-1,.41A1.57,1.57,0,0,0,199.71,145Z" />
            <path
                d="M207.12,146.59l.87-.14a1.2,1.2,0,0,0,.41.8,1.38,1.38,0,0,0,.93.28,1.33,1.33,0,0,0,.9-.25.71.71,0,0,0,.29-.58.55.55,0,0,0-.25-.47,4.62,4.62,0,0,0-.9-.29,10.07,10.07,0,0,1-1.34-.42,1.33,1.33,0,0,1-.57-.5,1.28,1.28,0,0,1-.19-.69,1.31,1.31,0,0,1,.16-.65,1.44,1.44,0,0,1,.43-.49,1.73,1.73,0,0,1,.56-.25,2.63,2.63,0,0,1,.76-.11,3,3,0,0,1,1.07.18,1.4,1.4,0,0,1,.68.47,1.76,1.76,0,0,1,.3.81l-.86.11a.94.94,0,0,0-.34-.62,1.22,1.22,0,0,0-.79-.23,1.45,1.45,0,0,0-.86.2.57.57,0,0,0-.26.47.48.48,0,0,0,.1.31.9.9,0,0,0,.34.24l.78.22a11,11,0,0,1,1.3.41,1.33,1.33,0,0,1,.58.46,1.28,1.28,0,0,1,.21.75,1.5,1.5,0,0,1-.26.83,1.65,1.65,0,0,1-.74.6,2.72,2.72,0,0,1-1.09.21,2.42,2.42,0,0,1-1.54-.42A1.92,1.92,0,0,1,207.12,146.59Z" />
        </g>
    </g>
</svg>
